<?xml version="1.0" encoding="utf-8"?>
<!-- Generator: Adobe Illustrator 27.2.0, SVG Export Plug-In . SVG Version: 6.00 Build 0)  -->
<svg version="1.1" id="Capa_1" xmlns="http://www.w3.org/2000/svg" xmlns:xlink="http://www.w3.org/1999/xlink" x="0px" y="0px"
	 viewBox="0 0 283.46 283.46" style="enable-background:new 0 0 283.46 283.46;" xml:space="preserve">
<style type="text/css">
	.st0{fill:#4169e1;}
</style>
<circle class="st0" cx="138.92" cy="77.49" r="26.34"/>
<circle class="st0" cx="223.47" cy="129.99" r="18.41"/>
<circle class="st0" cx="55.59" cy="137.92" r="18.09"/>
<path class="st0" d="M188.03,234.8c0.28,0.02,0.36-5.93,2.8-15.21c1.3-4.96,2.73-8.75,3.54-10.81c3.76-9.47,8.1-15.77,9.52-17.77
	c4.01-5.65,6.02-8.48,9.52-10.15c7.68-3.68,15.54-0.15,15.87,0c4.72,2.21,7.02,6.16,11.42,13.96c5.07,8.99,7.73,16.73,8.89,20.31
	c4.6,14.28,4.85,22.92,5.71,22.85c1.17-0.09,2.13-16.34-1.27-34.27c-1.51-7.97-4.4-19.03-11.42-30.47
	c-5.64-9.19-9.62-11.58-12.06-12.69c-0.57-0.26-9.85-4.34-19.04,0c-6.91,3.27-9.77,9.4-13.96,18.41c-1.2,2.57-4.44,9.87-6.98,22.85
	C187.04,219.79,187.58,234.77,188.03,234.8z"/>
<path class="st0" d="M88.51,237.98c-0.28,0.02-0.36-5.93-2.8-15.21c-1.3-4.96-2.73-8.75-3.54-10.81c-3.76-9.47-8.1-15.77-9.52-17.77
	c-4.01-5.65-6.02-8.48-9.52-10.15c-7.68-3.68-15.54-0.15-15.87,0c-4.72,2.21-7.02,6.16-11.42,13.96
	c-5.07,8.99-7.73,16.73-8.89,20.31c-4.6,14.28-4.85,22.92-5.71,22.85c-1.17-0.09-2.13-16.34,1.27-34.27
	c1.51-7.97,4.4-19.03,11.42-30.47c5.64-9.19,9.62-11.58,12.06-12.69c0.57-0.26,9.85-4.34,19.04,0c6.91,3.27,9.77,9.4,13.96,18.41
	c1.2,2.57,4.44,9.87,6.98,22.85c0,0,3.01,13.24,2.83,30.36c0,0.07,0.05,0.74-0.06,1.62C88.67,237.45,88.6,237.97,88.51,237.98z"/>
<path class="st0" d="M89.08,234.15c0.42,0.03,0.53-8.77,4.12-22.49c1.07-4.08,2.44-8.64,5.21-15.98
	c3.08-8.18,5.96-15.93,11.14-25.38c4.35-7.93,6.61-11.97,10.79-15.23c1.99-1.55,7.83-5.99,16.5-6.35
	c8.65-0.35,14.83,3.57,17.14,5.08c5.72,3.74,8.37,8.19,13.33,16.5c4.62,7.75,7.13,14.4,9.47,20.62c0.89,2.35,2.67,7.25,4.49,13.65
	c0.54,1.9,2.3,8.2,4.01,17.35c2.17,11.61,2.24,16.94,2.65,16.92c0.86-0.03,3.27-23.4-1.87-50.67c-2.22-11.79-6.47-28.13-16.79-45.04
	c-8.29-13.59-14.14-17.11-17.72-18.77c-0.84-0.39-14.46-6.42-27.98,0c-10.16,4.83-14.35,13.89-20.52,27.21
	c-1.76,3.8-6.52,14.59-10.26,33.78C87.63,211.95,88.42,234.1,89.08,234.15z"/>
<path class="st0" d="M220.61,234.4"/>
</svg>
